<svg width="64" height="64" viewBox="0 0 64 64" fill="none" xmlns="http://www.w3.org/2000/svg">
<path fill-rule="evenodd" clip-rule="evenodd" d="M43.0031 8.47008C42.8743 8.84559 42.7348 9.24471 42.5847 9.65304C42.2157 10.6569 41.7824 11.7164 41.2848 12.6178C40.3833 13.1154 39.3238 13.5487 38.32 13.9177C37.9117 14.0678 37.5126 14.2073 37.1371 14.3361C36.9353 14.4054 36.7403 14.4716 36.5543 14.5347C35.4515 14.909 34.667 15.1752 34.667 15.3333C34.667 15.4915 35.4515 15.7577 36.5543 16.132C36.7403 16.1951 36.9353 16.2613 37.1371 16.3305C37.5126 16.4594 37.9117 16.5988 38.32 16.749C39.3238 17.118 40.3833 17.5513 41.2848 18.0489C41.7824 18.9503 42.2157 20.0098 42.5847 21.0136C42.7348 21.422 42.8743 21.8211 43.0031 22.1966C43.0723 22.3981 43.1383 22.5927 43.2013 22.7784C43.5756 23.8813 43.8422 24.6667 44.0003 24.6667C44.1585 24.6667 44.4247 23.8822 44.799 22.7793C44.862 22.5937 44.9284 22.3981 44.9975 22.1966C45.1264 21.8211 45.2658 21.422 45.416 21.0136C45.785 20.0098 46.2183 18.9503 46.7159 18.0489C47.6173 17.5513 48.6768 17.118 49.6806 16.749C50.0889 16.5988 50.4881 16.4594 50.8636 16.3305C51.0652 16.2614 51.2599 16.1952 51.4457 16.1322C52.5486 15.7579 53.3337 15.4915 53.3337 15.3333C53.3337 15.1752 52.5492 14.909 51.4463 14.5347C51.2604 14.4716 51.0654 14.4054 50.8636 14.3361C50.4881 14.2073 50.0889 14.0678 49.6806 13.9177C48.6768 13.5487 47.6173 13.1154 46.7159 12.6178C46.2183 11.7164 45.785 10.6569 45.416 9.65305C45.2658 9.24471 45.1264 8.84559 44.9975 8.47008C44.9283 8.26827 44.8621 8.07328 44.799 7.88734C44.4247 6.78446 44.1585 6 44.0003 6C43.8422 6 43.5759 6.78446 43.2017 7.88734C43.1386 8.07328 43.0724 8.26827 43.0031 8.47008ZM42.5734 14.9524L43.2474 14.5804L43.6194 13.9064C43.7511 13.6678 43.8781 13.4217 44.0003 13.1713C44.1226 13.4217 44.2495 13.6678 44.3812 13.9064L44.7533 14.5804L45.4272 14.9524C45.6658 15.0841 45.9119 15.2111 46.1623 15.3333C45.9119 15.4556 45.6658 15.5825 45.4272 15.7142L44.7533 16.0863L44.3812 16.7602C44.2495 16.9988 44.1225 17.2449 44.0003 17.4953C43.8781 17.2449 43.7511 16.9988 43.6194 16.7602L43.2474 16.0863L42.5734 15.7142C42.3348 15.5825 42.0887 15.4556 41.8383 15.3333C42.0887 15.2111 42.3348 15.0841 42.5734 14.9524Z" fill="#0A285C"/>
<path fill-rule="evenodd" clip-rule="evenodd" d="M43.146 39.265L43.0477 39.2169C42.4615 38.9312 41.7822 38.6129 41.0334 38.262C39.0276 37.3222 36.5234 36.1489 33.9745 34.742C32.5676 32.1931 31.3942 29.6889 30.4545 27.6831C30.1036 26.9343 29.7853 26.255 29.4996 25.6687L29.4515 25.5704C28.7873 24.2148 28.3035 23.3828 28.0003 23.3828C27.6971 23.3828 27.2134 24.2148 26.5491 25.5704L26.5011 25.6687C26.2154 26.255 25.8971 26.9343 25.5462 27.683C24.6064 29.6888 23.4331 32.1931 22.0261 34.742C19.4773 36.1489 16.9731 37.3222 14.9674 38.262C14.2186 38.6128 13.5392 38.9312 12.9529 39.2169L12.8546 39.265C11.499 39.9292 10.667 40.4129 10.667 40.7161C10.667 41.0194 11.499 41.5031 12.8546 42.1673L12.9529 42.2154C13.5392 42.5011 14.2185 42.8194 14.9673 43.1703C16.973 44.1101 19.4773 45.2834 22.0261 46.6903C23.4331 49.2392 24.6064 51.7434 25.5462 53.7492C25.897 54.498 26.2154 55.1773 26.5011 55.7636L26.5491 55.8619C27.2134 57.2175 27.6971 58.0495 28.0003 58.0495C28.3035 58.0495 28.7873 57.2175 29.4515 55.8619L29.4996 55.7636C29.7853 55.1773 30.1036 54.498 30.4545 53.7492C31.3942 51.7434 32.5676 49.2392 33.9745 46.6903C36.5234 45.2834 39.0276 44.1101 41.0334 43.1703C41.7822 42.8194 42.4615 42.5011 43.0477 42.2154L43.146 42.1673C44.5017 41.5031 45.3337 41.0194 45.3337 40.7161C45.3337 40.4129 44.5017 39.9292 43.146 39.265ZM31.6399 36.0306L32.0119 36.7046L32.6859 37.0766C35.3178 38.5293 37.9051 39.7414 39.9067 40.679L39.9859 40.7161L39.9068 40.7532C37.9052 41.6909 35.3178 42.903 32.6859 44.3557L32.0119 44.7277L31.6399 45.4017C30.1871 48.0337 28.9751 50.621 28.0374 52.6226L28.0003 52.7017L27.9633 52.6226C27.0256 50.621 25.8135 48.0336 24.3608 45.4017L23.9888 44.7277L23.3148 44.3557C20.6828 42.9029 18.0956 41.6909 16.094 40.7533L16.0148 40.7161L16.0939 40.6791C18.0955 39.7414 20.6828 38.5294 23.3148 37.0766L23.9888 36.7046L24.3608 36.0306C25.8136 33.3986 27.0256 30.8113 27.9633 28.8097L28.0003 28.7306L28.0374 28.8097C28.9751 30.8113 30.1871 33.3986 31.6399 36.0306Z" fill="#0A285C"/>
</svg>
